<mxfile host="app.diagrams.net" modified="2023-10-06T14:52:01.321Z" agent="Mozilla/5.0 (Windows NT 10.0; Win64; x64) AppleWebKit/537.36 (KHTML, like Gecko) Chrome/117.0.0.0 Safari/537.36" etag="GUjEMEBsr_ZXt0kIufim" version="22.0.3" type="device">
  <diagram name="Page-1" id="9udOBQHGWkhTLUcLsEeG">
    <mxGraphModel dx="2420" dy="869" grid="1" gridSize="10" guides="1" tooltips="1" connect="1" arrows="1" fold="1" page="1" pageScale="1" pageWidth="827" pageHeight="1169" math="0" shadow="0">
      <root>
        <mxCell id="0" />
        <mxCell id="1" parent="0" />
        <mxCell id="lbY6XOo5T-FsNULS7bJM-42" style="edgeStyle=orthogonalEdgeStyle;rounded=0;orthogonalLoop=1;jettySize=auto;html=1;" parent="1" source="lbY6XOo5T-FsNULS7bJM-4" target="lbY6XOo5T-FsNULS7bJM-41" edge="1">
          <mxGeometry relative="1" as="geometry" />
        </mxCell>
        <mxCell id="lbY6XOo5T-FsNULS7bJM-4" value="Begin" style="rounded=1;whiteSpace=wrap;html=1;direction=west;arcSize=27;" parent="1" vertex="1">
          <mxGeometry x="340" y="40" width="70" height="30" as="geometry" />
        </mxCell>
        <mxCell id="lbY6XOo5T-FsNULS7bJM-24" style="edgeStyle=orthogonalEdgeStyle;rounded=0;orthogonalLoop=1;jettySize=auto;html=1;exitX=0.5;exitY=1;exitDx=0;exitDy=0;" parent="1" edge="1">
          <mxGeometry relative="1" as="geometry">
            <mxPoint x="375" y="280" as="sourcePoint" />
            <mxPoint x="375" y="280" as="targetPoint" />
          </mxGeometry>
        </mxCell>
        <mxCell id="lbY6XOo5T-FsNULS7bJM-53" value="" style="edgeStyle=orthogonalEdgeStyle;rounded=0;orthogonalLoop=1;jettySize=auto;html=1;" parent="1" source="lbY6XOo5T-FsNULS7bJM-28" target="lbY6XOo5T-FsNULS7bJM-52" edge="1">
          <mxGeometry relative="1" as="geometry" />
        </mxCell>
        <mxCell id="lbY6XOo5T-FsNULS7bJM-28" value="Sign In Form" style="whiteSpace=wrap;html=1;" parent="1" vertex="1">
          <mxGeometry x="470" y="280" width="120" height="60" as="geometry" />
        </mxCell>
        <mxCell id="lbY6XOo5T-FsNULS7bJM-46" style="edgeStyle=orthogonalEdgeStyle;rounded=0;orthogonalLoop=1;jettySize=auto;html=1;entryX=0.5;entryY=0;entryDx=0;entryDy=0;" parent="1" source="lbY6XOo5T-FsNULS7bJM-41" target="lbY6XOo5T-FsNULS7bJM-45" edge="1">
          <mxGeometry relative="1" as="geometry" />
        </mxCell>
        <mxCell id="lbY6XOo5T-FsNULS7bJM-47" style="edgeStyle=orthogonalEdgeStyle;rounded=0;orthogonalLoop=1;jettySize=auto;html=1;entryX=0.5;entryY=0;entryDx=0;entryDy=0;" parent="1" source="lbY6XOo5T-FsNULS7bJM-41" target="lbY6XOo5T-FsNULS7bJM-44" edge="1">
          <mxGeometry relative="1" as="geometry" />
        </mxCell>
        <mxCell id="lbY6XOo5T-FsNULS7bJM-41" value="Home Page" style="rounded=0;whiteSpace=wrap;html=1;" parent="1" vertex="1">
          <mxGeometry x="315" y="110" width="120" height="60" as="geometry" />
        </mxCell>
        <mxCell id="lbY6XOo5T-FsNULS7bJM-48" style="edgeStyle=orthogonalEdgeStyle;rounded=0;orthogonalLoop=1;jettySize=auto;html=1;entryX=0.5;entryY=0;entryDx=0;entryDy=0;" parent="1" source="lbY6XOo5T-FsNULS7bJM-44" target="lbY6XOo5T-FsNULS7bJM-28" edge="1">
          <mxGeometry relative="1" as="geometry" />
        </mxCell>
        <mxCell id="lbY6XOo5T-FsNULS7bJM-44" value="Sign In" style="rounded=0;whiteSpace=wrap;html=1;" parent="1" vertex="1">
          <mxGeometry x="470" y="200" width="120" height="60" as="geometry" />
        </mxCell>
        <mxCell id="lbY6XOo5T-FsNULS7bJM-51" value="" style="edgeStyle=orthogonalEdgeStyle;rounded=0;orthogonalLoop=1;jettySize=auto;html=1;" parent="1" source="lbY6XOo5T-FsNULS7bJM-45" target="lbY6XOo5T-FsNULS7bJM-50" edge="1">
          <mxGeometry relative="1" as="geometry" />
        </mxCell>
        <mxCell id="lbY6XOo5T-FsNULS7bJM-45" value="Log In" style="rounded=0;whiteSpace=wrap;html=1;" parent="1" vertex="1">
          <mxGeometry x="160" y="200" width="120" height="60" as="geometry" />
        </mxCell>
        <mxCell id="lbY6XOo5T-FsNULS7bJM-63" style="edgeStyle=orthogonalEdgeStyle;rounded=0;orthogonalLoop=1;jettySize=auto;html=1;entryX=0.5;entryY=0;entryDx=0;entryDy=0;" parent="1" source="lbY6XOo5T-FsNULS7bJM-50" target="lbY6XOo5T-FsNULS7bJM-52" edge="1">
          <mxGeometry relative="1" as="geometry" />
        </mxCell>
        <mxCell id="lbY6XOo5T-FsNULS7bJM-50" value="Log In Form" style="whiteSpace=wrap;html=1;rounded=0;" parent="1" vertex="1">
          <mxGeometry x="160" y="280" width="120" height="60" as="geometry" />
        </mxCell>
        <mxCell id="lbY6XOo5T-FsNULS7bJM-58" value="" style="edgeStyle=orthogonalEdgeStyle;rounded=0;orthogonalLoop=1;jettySize=auto;html=1;" parent="1" source="lbY6XOo5T-FsNULS7bJM-52" target="lbY6XOo5T-FsNULS7bJM-57" edge="1">
          <mxGeometry relative="1" as="geometry">
            <mxPoint x="542.5" y="430" as="sourcePoint" />
          </mxGeometry>
        </mxCell>
        <mxCell id="lbY6XOo5T-FsNULS7bJM-59" value="True&lt;br&gt;" style="edgeLabel;html=1;align=center;verticalAlign=middle;resizable=0;points=[];" parent="lbY6XOo5T-FsNULS7bJM-58" vertex="1" connectable="0">
          <mxGeometry x="-0.7032" y="-5" relative="1" as="geometry">
            <mxPoint y="-15" as="offset" />
          </mxGeometry>
        </mxCell>
        <mxCell id="lbY6XOo5T-FsNULS7bJM-61" value="" style="edgeStyle=orthogonalEdgeStyle;rounded=0;orthogonalLoop=1;jettySize=auto;html=1;" parent="1" source="lbY6XOo5T-FsNULS7bJM-52" target="lbY6XOo5T-FsNULS7bJM-60" edge="1">
          <mxGeometry relative="1" as="geometry" />
        </mxCell>
        <mxCell id="lbY6XOo5T-FsNULS7bJM-62" value="False" style="edgeLabel;html=1;align=center;verticalAlign=middle;resizable=0;points=[];" parent="lbY6XOo5T-FsNULS7bJM-61" vertex="1" connectable="0">
          <mxGeometry x="-0.65" y="1" relative="1" as="geometry">
            <mxPoint x="-10" y="-11" as="offset" />
          </mxGeometry>
        </mxCell>
        <mxCell id="lbY6XOo5T-FsNULS7bJM-52" value="Are You a Developer?" style="rhombus;whiteSpace=wrap;html=1;" parent="1" vertex="1">
          <mxGeometry x="317.5" y="400" width="115" height="60" as="geometry" />
        </mxCell>
        <mxCell id="lbY6XOo5T-FsNULS7bJM-65" value="" style="edgeStyle=orthogonalEdgeStyle;rounded=0;orthogonalLoop=1;jettySize=auto;html=1;" parent="1" source="lbY6XOo5T-FsNULS7bJM-57" target="lbY6XOo5T-FsNULS7bJM-64" edge="1">
          <mxGeometry relative="1" as="geometry">
            <Array as="points">
              <mxPoint x="620" y="508" />
              <mxPoint x="640" y="508" />
            </Array>
          </mxGeometry>
        </mxCell>
        <mxCell id="lbY6XOo5T-FsNULS7bJM-57" value="Developer Account Page" style="whiteSpace=wrap;html=1;" parent="1" vertex="1">
          <mxGeometry x="520" y="400" width="120" height="60" as="geometry" />
        </mxCell>
        <mxCell id="-x3NqNRwH3cahSPGtvpi-34" style="edgeStyle=orthogonalEdgeStyle;rounded=0;orthogonalLoop=1;jettySize=auto;html=1;" edge="1" parent="1" source="lbY6XOo5T-FsNULS7bJM-60" target="-x3NqNRwH3cahSPGtvpi-33">
          <mxGeometry relative="1" as="geometry">
            <Array as="points">
              <mxPoint x="240" y="540" />
              <mxPoint x="240" y="540" />
            </Array>
          </mxGeometry>
        </mxCell>
        <mxCell id="lbY6XOo5T-FsNULS7bJM-60" value="User Account Page" style="whiteSpace=wrap;html=1;" parent="1" vertex="1">
          <mxGeometry x="140" y="400" width="120" height="60" as="geometry" />
        </mxCell>
        <mxCell id="lbY6XOo5T-FsNULS7bJM-71" style="edgeStyle=orthogonalEdgeStyle;rounded=0;orthogonalLoop=1;jettySize=auto;html=1;" parent="1" source="lbY6XOo5T-FsNULS7bJM-64" target="lbY6XOo5T-FsNULS7bJM-66" edge="1">
          <mxGeometry relative="1" as="geometry">
            <Array as="points">
              <mxPoint x="510" y="570" />
            </Array>
          </mxGeometry>
        </mxCell>
        <mxCell id="lbY6XOo5T-FsNULS7bJM-64" value="Next&lt;br&gt;" style="whiteSpace=wrap;html=1;" parent="1" vertex="1">
          <mxGeometry x="610" y="555" width="80" height="30" as="geometry" />
        </mxCell>
        <mxCell id="lbY6XOo5T-FsNULS7bJM-76" style="edgeStyle=orthogonalEdgeStyle;rounded=0;orthogonalLoop=1;jettySize=auto;html=1;" parent="1" source="lbY6XOo5T-FsNULS7bJM-66" target="lbY6XOo5T-FsNULS7bJM-75" edge="1">
          <mxGeometry relative="1" as="geometry" />
        </mxCell>
        <mxCell id="lbY6XOo5T-FsNULS7bJM-86" style="edgeStyle=orthogonalEdgeStyle;rounded=0;orthogonalLoop=1;jettySize=auto;html=1;" parent="1" source="lbY6XOo5T-FsNULS7bJM-66" target="lbY6XOo5T-FsNULS7bJM-85" edge="1">
          <mxGeometry relative="1" as="geometry">
            <Array as="points">
              <mxPoint x="470" y="670" />
              <mxPoint x="470" y="670" />
            </Array>
          </mxGeometry>
        </mxCell>
        <mxCell id="-x3NqNRwH3cahSPGtvpi-6" style="edgeStyle=orthogonalEdgeStyle;rounded=0;orthogonalLoop=1;jettySize=auto;html=1;entryX=0.5;entryY=0;entryDx=0;entryDy=0;" edge="1" parent="1" source="lbY6XOo5T-FsNULS7bJM-66" target="-x3NqNRwH3cahSPGtvpi-3">
          <mxGeometry relative="1" as="geometry">
            <Array as="points">
              <mxPoint x="440" y="800" />
              <mxPoint x="900" y="800" />
            </Array>
          </mxGeometry>
        </mxCell>
        <mxCell id="lbY6XOo5T-FsNULS7bJM-66" value="Task List Page" style="rounded=0;whiteSpace=wrap;html=1;" parent="1" vertex="1">
          <mxGeometry x="410" y="620" width="120" height="60" as="geometry" />
        </mxCell>
        <mxCell id="lbY6XOo5T-FsNULS7bJM-82" style="edgeStyle=orthogonalEdgeStyle;rounded=0;orthogonalLoop=1;jettySize=auto;html=1;" parent="1" source="lbY6XOo5T-FsNULS7bJM-67" target="lbY6XOo5T-FsNULS7bJM-81" edge="1">
          <mxGeometry relative="1" as="geometry" />
        </mxCell>
        <mxCell id="-x3NqNRwH3cahSPGtvpi-12" style="edgeStyle=orthogonalEdgeStyle;rounded=0;orthogonalLoop=1;jettySize=auto;html=1;" edge="1" parent="1" source="lbY6XOo5T-FsNULS7bJM-67" target="-x3NqNRwH3cahSPGtvpi-9">
          <mxGeometry relative="1" as="geometry" />
        </mxCell>
        <mxCell id="lbY6XOo5T-FsNULS7bJM-67" value="Price Editor Page" style="rounded=0;whiteSpace=wrap;html=1;" parent="1" vertex="1">
          <mxGeometry x="670" y="620" width="120" height="60" as="geometry" />
        </mxCell>
        <mxCell id="lbY6XOo5T-FsNULS7bJM-77" style="edgeStyle=orthogonalEdgeStyle;rounded=0;orthogonalLoop=1;jettySize=auto;html=1;" parent="1" source="lbY6XOo5T-FsNULS7bJM-75" target="lbY6XOo5T-FsNULS7bJM-67" edge="1">
          <mxGeometry relative="1" as="geometry" />
        </mxCell>
        <mxCell id="lbY6XOo5T-FsNULS7bJM-75" value="Next&lt;br&gt;" style="whiteSpace=wrap;html=1;" parent="1" vertex="1">
          <mxGeometry x="560" y="635" width="80" height="30" as="geometry" />
        </mxCell>
        <mxCell id="lbY6XOo5T-FsNULS7bJM-83" style="edgeStyle=orthogonalEdgeStyle;rounded=0;orthogonalLoop=1;jettySize=auto;html=1;" parent="1" source="lbY6XOo5T-FsNULS7bJM-81" target="lbY6XOo5T-FsNULS7bJM-66" edge="1">
          <mxGeometry relative="1" as="geometry" />
        </mxCell>
        <mxCell id="lbY6XOo5T-FsNULS7bJM-81" value="Back" style="whiteSpace=wrap;html=1;" parent="1" vertex="1">
          <mxGeometry x="690" y="710" width="80" height="30" as="geometry" />
        </mxCell>
        <mxCell id="lbY6XOo5T-FsNULS7bJM-85" value="Back" style="whiteSpace=wrap;html=1;" parent="1" vertex="1">
          <mxGeometry x="430" y="490" width="80" height="30" as="geometry" />
        </mxCell>
        <mxCell id="lbY6XOo5T-FsNULS7bJM-87" style="edgeStyle=orthogonalEdgeStyle;rounded=0;orthogonalLoop=1;jettySize=auto;html=1;entryX=0.192;entryY=0.983;entryDx=0;entryDy=0;entryPerimeter=0;" parent="1" source="lbY6XOo5T-FsNULS7bJM-85" target="lbY6XOo5T-FsNULS7bJM-57" edge="1">
          <mxGeometry relative="1" as="geometry" />
        </mxCell>
        <mxCell id="-x3NqNRwH3cahSPGtvpi-8" style="edgeStyle=orthogonalEdgeStyle;rounded=0;orthogonalLoop=1;jettySize=auto;html=1;" edge="1" parent="1" source="-x3NqNRwH3cahSPGtvpi-3" target="lbY6XOo5T-FsNULS7bJM-57">
          <mxGeometry relative="1" as="geometry">
            <Array as="points">
              <mxPoint x="720" y="410" />
              <mxPoint x="720" y="410" />
            </Array>
          </mxGeometry>
        </mxCell>
        <mxCell id="-x3NqNRwH3cahSPGtvpi-3" value="Home" style="whiteSpace=wrap;html=1;" vertex="1" parent="1">
          <mxGeometry x="860" y="400" width="80" height="30" as="geometry" />
        </mxCell>
        <mxCell id="-x3NqNRwH3cahSPGtvpi-11" style="edgeStyle=orthogonalEdgeStyle;rounded=0;orthogonalLoop=1;jettySize=auto;html=1;" edge="1" parent="1" source="-x3NqNRwH3cahSPGtvpi-9" target="lbY6XOo5T-FsNULS7bJM-57">
          <mxGeometry relative="1" as="geometry">
            <Array as="points">
              <mxPoint x="670" y="445" />
              <mxPoint x="670" y="445" />
            </Array>
          </mxGeometry>
        </mxCell>
        <mxCell id="-x3NqNRwH3cahSPGtvpi-9" value="Home" style="whiteSpace=wrap;html=1;" vertex="1" parent="1">
          <mxGeometry x="770" y="430" width="80" height="30" as="geometry" />
        </mxCell>
        <mxCell id="-x3NqNRwH3cahSPGtvpi-36" style="edgeStyle=orthogonalEdgeStyle;rounded=0;orthogonalLoop=1;jettySize=auto;html=1;" edge="1" parent="1" source="-x3NqNRwH3cahSPGtvpi-33" target="-x3NqNRwH3cahSPGtvpi-35">
          <mxGeometry relative="1" as="geometry" />
        </mxCell>
        <mxCell id="-x3NqNRwH3cahSPGtvpi-33" value="Next&lt;br&gt;" style="whiteSpace=wrap;html=1;" vertex="1" parent="1">
          <mxGeometry x="200" y="555" width="80" height="30" as="geometry" />
        </mxCell>
        <mxCell id="-x3NqNRwH3cahSPGtvpi-38" style="edgeStyle=orthogonalEdgeStyle;rounded=0;orthogonalLoop=1;jettySize=auto;html=1;entryX=0.5;entryY=1;entryDx=0;entryDy=0;" edge="1" parent="1" target="-x3NqNRwH3cahSPGtvpi-37">
          <mxGeometry relative="1" as="geometry">
            <mxPoint x="180" y="679" as="sourcePoint" />
            <mxPoint x="80" y="624" as="targetPoint" />
            <Array as="points">
              <mxPoint x="180" y="650" />
              <mxPoint x="140" y="650" />
            </Array>
          </mxGeometry>
        </mxCell>
        <mxCell id="-x3NqNRwH3cahSPGtvpi-41" style="edgeStyle=orthogonalEdgeStyle;rounded=0;orthogonalLoop=1;jettySize=auto;html=1;" edge="1" parent="1" source="-x3NqNRwH3cahSPGtvpi-35" target="-x3NqNRwH3cahSPGtvpi-42">
          <mxGeometry relative="1" as="geometry">
            <mxPoint x="120" y="670" as="targetPoint" />
            <Array as="points">
              <mxPoint x="140" y="690" />
              <mxPoint x="140" y="690" />
            </Array>
          </mxGeometry>
        </mxCell>
        <mxCell id="-x3NqNRwH3cahSPGtvpi-49" style="edgeStyle=orthogonalEdgeStyle;rounded=0;orthogonalLoop=1;jettySize=auto;html=1;" edge="1" parent="1" source="-x3NqNRwH3cahSPGtvpi-35" target="-x3NqNRwH3cahSPGtvpi-48">
          <mxGeometry relative="1" as="geometry">
            <Array as="points">
              <mxPoint x="50" y="660" />
            </Array>
          </mxGeometry>
        </mxCell>
        <mxCell id="-x3NqNRwH3cahSPGtvpi-35" value="Task List Page" style="rounded=0;whiteSpace=wrap;html=1;" vertex="1" parent="1">
          <mxGeometry x="180" y="640" width="120" height="60" as="geometry" />
        </mxCell>
        <mxCell id="-x3NqNRwH3cahSPGtvpi-39" style="edgeStyle=orthogonalEdgeStyle;rounded=0;orthogonalLoop=1;jettySize=auto;html=1;" edge="1" parent="1" source="-x3NqNRwH3cahSPGtvpi-37" target="lbY6XOo5T-FsNULS7bJM-60">
          <mxGeometry relative="1" as="geometry" />
        </mxCell>
        <mxCell id="-x3NqNRwH3cahSPGtvpi-37" value="Back" style="whiteSpace=wrap;html=1;" vertex="1" parent="1">
          <mxGeometry x="100" y="555" width="80" height="30" as="geometry" />
        </mxCell>
        <mxCell id="-x3NqNRwH3cahSPGtvpi-45" style="edgeStyle=orthogonalEdgeStyle;rounded=0;orthogonalLoop=1;jettySize=auto;html=1;" edge="1" parent="1" source="-x3NqNRwH3cahSPGtvpi-40" target="-x3NqNRwH3cahSPGtvpi-44">
          <mxGeometry relative="1" as="geometry" />
        </mxCell>
        <mxCell id="-x3NqNRwH3cahSPGtvpi-53" style="edgeStyle=orthogonalEdgeStyle;rounded=0;orthogonalLoop=1;jettySize=auto;html=1;" edge="1" parent="1" source="-x3NqNRwH3cahSPGtvpi-40" target="-x3NqNRwH3cahSPGtvpi-52">
          <mxGeometry relative="1" as="geometry" />
        </mxCell>
        <mxCell id="-x3NqNRwH3cahSPGtvpi-40" value="Task List Page" style="rounded=0;whiteSpace=wrap;html=1;" vertex="1" parent="1">
          <mxGeometry x="-120" y="640" width="120" height="60" as="geometry" />
        </mxCell>
        <mxCell id="-x3NqNRwH3cahSPGtvpi-43" style="edgeStyle=orthogonalEdgeStyle;rounded=0;orthogonalLoop=1;jettySize=auto;html=1;" edge="1" parent="1" source="-x3NqNRwH3cahSPGtvpi-42" target="-x3NqNRwH3cahSPGtvpi-40">
          <mxGeometry relative="1" as="geometry" />
        </mxCell>
        <mxCell id="-x3NqNRwH3cahSPGtvpi-42" value="Next&lt;br&gt;" style="whiteSpace=wrap;html=1;" vertex="1" parent="1">
          <mxGeometry x="40" y="670" width="80" height="30" as="geometry" />
        </mxCell>
        <mxCell id="-x3NqNRwH3cahSPGtvpi-46" style="edgeStyle=orthogonalEdgeStyle;rounded=0;orthogonalLoop=1;jettySize=auto;html=1;" edge="1" parent="1" source="-x3NqNRwH3cahSPGtvpi-44" target="-x3NqNRwH3cahSPGtvpi-35">
          <mxGeometry relative="1" as="geometry">
            <Array as="points">
              <mxPoint x="210" y="755" />
            </Array>
          </mxGeometry>
        </mxCell>
        <mxCell id="-x3NqNRwH3cahSPGtvpi-44" value="Back" style="whiteSpace=wrap;html=1;" vertex="1" parent="1">
          <mxGeometry x="-100" y="740" width="80" height="30" as="geometry" />
        </mxCell>
        <mxCell id="-x3NqNRwH3cahSPGtvpi-51" style="edgeStyle=orthogonalEdgeStyle;rounded=0;orthogonalLoop=1;jettySize=auto;html=1;" edge="1" parent="1" source="-x3NqNRwH3cahSPGtvpi-48" target="lbY6XOo5T-FsNULS7bJM-60">
          <mxGeometry relative="1" as="geometry">
            <mxPoint x="80" y="420" as="targetPoint" />
            <Array as="points">
              <mxPoint x="50" y="440" />
            </Array>
          </mxGeometry>
        </mxCell>
        <mxCell id="-x3NqNRwH3cahSPGtvpi-48" value="Home" style="whiteSpace=wrap;html=1;" vertex="1" parent="1">
          <mxGeometry x="10" y="555" width="80" height="30" as="geometry" />
        </mxCell>
        <mxCell id="-x3NqNRwH3cahSPGtvpi-54" style="edgeStyle=orthogonalEdgeStyle;rounded=0;orthogonalLoop=1;jettySize=auto;html=1;" edge="1" parent="1" source="-x3NqNRwH3cahSPGtvpi-52" target="lbY6XOo5T-FsNULS7bJM-60">
          <mxGeometry relative="1" as="geometry">
            <mxPoint x="-60" y="420" as="targetPoint" />
            <Array as="points">
              <mxPoint x="-60" y="488" />
              <mxPoint x="-59" y="488" />
              <mxPoint x="-59" y="420" />
            </Array>
          </mxGeometry>
        </mxCell>
        <mxCell id="-x3NqNRwH3cahSPGtvpi-52" value="Home" style="whiteSpace=wrap;html=1;" vertex="1" parent="1">
          <mxGeometry x="-100" y="555" width="80" height="30" as="geometry" />
        </mxCell>
      </root>
    </mxGraphModel>
  </diagram>
</mxfile>
